<?xml version="1.0" encoding="UTF-8"?>
<svg version="1.1" viewBox="0 0 281.34 127.19" xmlns="http://www.w3.org/2000/svg" xmlns:cc="http://creativecommons.org/ns#" xmlns:dc="http://purl.org/dc/elements/1.1/" xmlns:rdf="http://www.w3.org/1999/02/22-rdf-syntax-ns#">
<metadata>
<rdf:RDF>
<cc:Work rdf:about="">
<dc:format>image/svg+xml</dc:format>
<dc:type rdf:resource="http://purl.org/dc/dcmitype/StillImage"/>
<dc:title/>
</cc:Work>
</rdf:RDF>
</metadata>
<g transform="matrix(1.7656 0 0 1.7656 -464.07 734.02)">
<g transform="matrix(1.25 0 0 -1.25 344.82 -389.7)">
<path d="m0 0c0-0.201 0.017-0.383 0.048-0.548 0.032-0.164 0.093-0.303 0.181-0.413 0.087-0.114 0.206-0.201 0.353-0.264 0.151-0.066 0.336-0.097 0.56-0.097 0.263 0 0.504 0.086 0.716 0.258s0.318 0.439 0.318 0.798c0 0.193-0.025 0.36-0.078 0.499-0.053 0.142-0.138 0.267-0.259 0.38-0.12 0.113-0.277 0.215-0.475 0.306-0.196 0.093-0.438 0.187-0.727 0.283-0.386 0.129-0.718 0.269-0.999 0.421-0.28 0.152-0.515 0.331-0.702 0.535-0.189 0.203-0.326 0.44-0.415 0.709-0.089 0.27-0.133 0.579-0.133 0.932 0 0.849 0.238 1.483 0.709 1.9 0.473 0.417 1.124 0.626 1.949 0.626 0.386 0 0.739-0.043 1.065-0.127 0.325-0.085 0.603-0.221 0.839-0.409 0.239-0.187 0.423-0.429 0.555-0.721 0.133-0.293 0.197-0.643 0.197-1.052v-0.24h-1.659c0 0.408-0.072 0.723-0.217 0.942-0.141 0.222-0.383 0.332-0.721 0.332-0.191 0-0.352-0.028-0.481-0.085-0.128-0.055-0.229-0.13-0.305-0.222-0.078-0.092-0.127-0.2-0.157-0.318-0.027-0.121-0.041-0.246-0.041-0.373 0-0.265 0.055-0.487 0.167-0.667 0.113-0.181 0.353-0.347 0.722-0.5l1.334-0.576c0.329-0.145 0.599-0.295 0.807-0.452 0.208-0.156 0.374-0.324 0.5-0.506 0.122-0.18 0.208-0.378 0.255-0.594 0.05-0.216 0.075-0.456 0.075-0.721 0-0.908-0.264-1.566-0.788-1.978-0.527-0.413-1.258-0.62-2.195-0.62-0.977 0-1.677 0.213-2.099 0.638-0.42 0.425-0.631 1.033-0.631 1.827v0.348h1.732v-0.251" fill="#231f20"/>
</g>
<path d="m350.98-386.66h2.1662v-10.731h-2.1662v10.731z" fill="#231f20"/>
<g transform="matrix(1.25 0 0 -1.25 359.86 -390.04)">
<path d="m0 0h0.024v5.88h1.587v-8.585h-1.971l-2.118 6.012h-0.023v-6.012h-1.588v8.585h1.998l2.091-5.88" fill="#231f20"/>
</g>
<g transform="matrix(1.25 0 0 -1.25 368.08 -394.82)">
<path d="m0 0c-0.036 0.168-0.094 0.322-0.174 0.463-0.08 0.142-0.183 0.257-0.307 0.349-0.125 0.091-0.275 0.139-0.451 0.139-0.417 0-0.717-0.233-0.901-0.699-0.185-0.464-0.278-1.234-0.278-2.308 0-0.512 0.017-0.978 0.048-1.395 0.032-0.417 0.092-0.772 0.175-1.063 0.085-0.293 0.205-0.519 0.36-0.673 0.157-0.156 0.36-0.235 0.609-0.235 0.104 0 0.217 0.028 0.34 0.084 0.126 0.056 0.243 0.14 0.35 0.252 0.108 0.111 0.2 0.254 0.273 0.427 0.071 0.173 0.107 0.375 0.107 0.607v0.879h-1.143v1.274h2.801v-4.63h-1.272v0.794h-0.027c-0.207-0.336-0.459-0.576-0.75-0.716-0.295-0.14-0.644-0.211-1.054-0.211-0.528 0-0.959 0.093-1.291 0.277-0.334 0.184-0.594 0.47-0.782 0.854-0.188 0.385-0.316 0.861-0.378 1.425-0.064 0.565-0.096 1.221-0.096 1.967 0 0.721 0.046 1.353 0.137 1.898 0.092 0.546 0.25 1 0.476 1.365 0.224 0.366 0.521 0.639 0.889 0.824 0.369 0.184 0.831 0.277 1.383 0.277 0.946 0 1.627-0.235 2.044-0.704s0.625-1.14 0.625-2.014h-1.659c0 0.161-0.017 0.325-0.054 0.493" fill="#231f20"/>
</g>
<g transform="matrix(1.25 0 0 -1.25 376.21 -390.7)">
<path d="m0 0-0.83 3.859h-0.023l-0.831-3.859h1.684zm0.229 5.35 2.272-8.585h-1.803l-0.397 1.815h-2.285l-0.397-1.815h-1.802l2.272 8.585h2.14" fill="#231f20"/>
</g>
<g transform="matrix(1.25 0 0 -1.25 383.22 -392.54)">
<path d="m0 0c0.345 0 0.623 0.104 0.836 0.312 0.212 0.209 0.318 0.533 0.318 0.974 0 0.433-0.093 0.761-0.277 0.985-0.185 0.226-0.493 0.339-0.925 0.339h-0.723v-2.61h0.771zm0.528 3.884c0.442 0 0.812-0.075 1.112-0.222 0.301-0.149 0.544-0.345 0.729-0.585 0.183-0.239 0.313-0.514 0.395-0.823 0.082-0.308 0.121-0.624 0.121-0.943 0-0.442-0.066-0.827-0.2-1.156-0.129-0.329-0.316-0.595-0.551-0.804-0.237-0.208-0.524-0.365-0.86-0.469-0.337-0.104-0.71-0.156-1.118-0.156h-0.927v-3.428h-1.73v8.586h3.029" fill="#231f20"/>
</g>
<g transform="matrix(1.25 0 0 -1.25 389.89 -390.18)">
<path d="m0 0c0.027-0.404 0.083-0.734 0.168-0.986s0.203-0.437 0.36-0.553c0.156-0.115 0.362-0.174 0.619-0.174 0.258 0 0.463 0.059 0.619 0.174 0.159 0.116 0.278 0.301 0.361 0.553 0.085 0.252 0.14 0.582 0.168 0.986s0.042 0.895 0.042 1.473c0 0.576-0.014 1.067-0.042 1.467-0.028 0.401-0.083 0.73-0.168 0.985-0.083 0.257-0.202 0.444-0.361 0.56-0.156 0.116-0.361 0.175-0.619 0.175-0.257 0-0.463-0.059-0.619-0.175-0.157-0.116-0.275-0.303-0.36-0.56-0.085-0.255-0.141-0.584-0.168-0.985-0.028-0.4-0.044-0.891-0.044-1.467 0-0.578 0.016-1.069 0.044-1.473zm-1.685 3.271c0.061 0.548 0.192 1.019 0.4 1.412 0.202 0.393 0.498 0.7 0.881 0.92 0.384 0.22 0.903 0.331 1.551 0.331 0.649 0 1.167-0.111 1.552-0.331 0.384-0.22 0.679-0.527 0.884-0.92s0.335-0.864 0.396-1.412c0.059-0.55 0.09-1.148 0.09-1.798 0-0.658-0.031-1.259-0.09-1.804-0.061-0.546-0.191-1.014-0.396-1.407s-0.5-0.694-0.884-0.901c-0.385-0.209-0.903-0.314-1.552-0.314-0.648 0-1.167 0.105-1.551 0.314-0.383 0.207-0.679 0.508-0.881 0.901-0.208 0.393-0.339 0.861-0.4 1.407-0.061 0.545-0.09 1.146-0.09 1.804 0 0.65 0.029 1.248 0.09 1.798" fill="#231f20"/>
</g>
<g transform="matrix(1.25 0 0 -1.25 399.32 -392.7)">
<path d="m0 0c0.416 0 0.737 0.098 0.961 0.295 0.225 0.197 0.336 0.527 0.336 0.992 0 0.794-0.399 1.191-1.202 1.191h-0.818v-2.478h0.723zm0.745 3.752c0.722 0 1.284-0.184 1.683-0.547 0.401-0.367 0.601-0.92 0.601-1.664 0-0.58-0.116-1.049-0.35-1.414-0.23-0.365-0.592-0.6-1.08-0.704v-0.026c0.432-0.062 0.747-0.202 0.95-0.419 0.2-0.217 0.323-0.565 0.373-1.046 0.014-0.161 0.027-0.335 0.035-0.523 7e-3 -0.189 0.014-0.399 0.023-0.632 0.018-0.456 0.039-0.805 0.073-1.046 0.048-0.24 0.154-0.404 0.314-0.493v-0.071h-1.877c-0.089 0.12-0.146 0.259-0.168 0.415-0.025 0.155-0.04 0.318-0.05 0.486l-0.046 1.647c-0.016 0.337-0.101 0.602-0.253 0.793-0.153 0.194-0.408 0.29-0.769 0.29h-0.927v-3.631h-1.731v8.585h3.199" fill="#231f20"/>
</g>
<g transform="matrix(1.25 0 0 -1.25 410.6 -395.62)">
<path d="m0 0h-3.066v-2.019h2.884v-1.419h-2.884v-2.31h3.185v-1.418h-4.918v8.585h4.799v-1.419" fill="#231f20"/>
</g>
<path d="m343.18-373.78h2.1638v-10.729h-2.1638v10.729z" fill="#231f20"/>
<g transform="matrix(1.25 0 0 -1.25 352.06 -377.16)">
<path d="m0 0h0.025v5.879h1.586v-8.584h-1.97l-2.117 6.012h-0.024v-6.012h-1.589v8.584h1.996l2.093-5.879" fill="#231f20"/>
</g>
<g transform="matrix(1.25 0 0 -1.25 357.32 -376.81)">
<path d="m0 0c0-0.2 0.016-0.382 0.048-0.546 0.031-0.166 0.093-0.302 0.182-0.416 0.087-0.113 0.207-0.201 0.354-0.265 0.149-0.064 0.334-0.097 0.559-0.097 0.263 0 0.502 0.086 0.715 0.26 0.213 0.172 0.319 0.439 0.319 0.8 0 0.191-0.027 0.358-0.078 0.499-0.052 0.139-0.138 0.265-0.26 0.378-0.119 0.112-0.278 0.215-0.474 0.306-0.197 0.093-0.437 0.187-0.726 0.283-0.386 0.129-0.718 0.267-0.999 0.421-0.282 0.152-0.515 0.33-0.703 0.535-0.189 0.205-0.328 0.441-0.414 0.71-0.089 0.268-0.133 0.579-0.133 0.93 0 0.851 0.236 1.484 0.709 1.902 0.473 0.417 1.123 0.624 1.948 0.624 0.385 0 0.739-0.041 1.063-0.127 0.326-0.083 0.606-0.22 0.842-0.408 0.237-0.188 0.42-0.429 0.554-0.721 0.132-0.293 0.199-0.644 0.199-1.052v-0.241h-1.661c0 0.409-0.071 0.723-0.216 0.944-0.144 0.22-0.384 0.331-0.722 0.331-0.192 0-0.351-0.029-0.48-0.085-0.128-0.056-0.23-0.128-0.308-0.221-0.076-0.093-0.126-0.2-0.155-0.32-0.029-0.121-0.043-0.243-0.043-0.372 0-0.264 0.057-0.487 0.168-0.668 0.112-0.181 0.355-0.346 0.722-0.498l1.336-0.578c0.328-0.144 0.596-0.294 0.804-0.451 0.209-0.156 0.376-0.325 0.5-0.504 0.124-0.181 0.21-0.379 0.258-0.596 0.047-0.215 0.072-0.457 0.072-0.722 0-0.904-0.261-1.564-0.786-1.976-0.526-0.414-1.258-0.621-2.195-0.621-0.978 0-1.678 0.214-2.099 0.639-0.421 0.423-0.63 1.034-0.63 1.827v0.347h1.73v-0.251" fill="#231f20"/>
</g>
<g transform="matrix(1.25 0 0 -1.25 369.66 -382.73)">
<path d="m0 0h-1.876v-7.166h-1.732v7.166h-1.874v1.418h5.482v-1.418" fill="#231f20"/>
</g>
<path d="m370.7-373.78h2.1625v-10.729h-2.1625v10.729z" fill="#231f20"/>
<g transform="matrix(1.25 0 0 -1.25 380.75 -382.73)">
<path d="m0 0h-1.874v-7.166h-1.732v7.166h-1.876v1.418h5.482v-1.418" fill="#231f20"/>
</g>
<g transform="matrix(1.25 0 0 -1.25 383.71 -377.03)">
<path d="m0 0c0-0.217 0.016-0.416 0.044-0.597 0.029-0.179 0.079-0.336 0.157-0.468 0.076-0.133 0.179-0.237 0.313-0.313 0.13-0.076 0.298-0.115 0.499-0.115 0.207 0 0.375 0.039 0.504 0.115 0.127 0.076 0.229 0.18 0.308 0.313 0.075 0.132 0.127 0.289 0.155 0.468 0.029 0.181 0.043 0.38 0.043 0.597v5.985h1.731v-5.985c0-0.546-0.078-0.996-0.227-1.354-0.154-0.357-0.359-0.639-0.615-0.848-0.255-0.208-0.549-0.349-0.877-0.421-0.33-0.071-0.669-0.108-1.022-0.108-0.352 0-0.695 0.033-1.023 0.097-0.329 0.063-0.621 0.194-0.877 0.391-0.257 0.195-0.462 0.475-0.615 0.836-0.152 0.359-0.227 0.829-0.227 1.407v5.985h1.729v-5.985" fill="#231f20"/>
</g>
<g transform="matrix(1.25 0 0 -1.25 396.05 -382.73)">
<path d="m0 0h-1.876v-7.166h-1.731v7.166h-1.876v1.418h5.483v-1.418" fill="#231f20"/>
</g>
<g transform="matrix(1.25 0 0 -1.25 402.98 -382.73)">
<path d="m0 0h-3.063v-2.02h2.887v-1.419h-2.887v-2.308h3.186v-1.419h-4.918v8.584h4.795v-1.418" fill="#231f20"/>
</g>
<g transform="matrix(1.25 0 0 -1.25 409.81 -377.3)">
<path d="m0 0c0.029-0.404 0.084-0.734 0.169-0.986 0.083-0.252 0.203-0.436 0.361-0.554 0.155-0.116 0.361-0.174 0.618-0.174 0.256 0 0.465 0.058 0.621 0.174 0.155 0.118 0.275 0.302 0.358 0.554 0.084 0.252 0.142 0.582 0.17 0.986 0.027 0.404 0.041 0.896 0.041 1.473s-0.014 1.066-0.041 1.467c-0.028 0.401-0.086 0.729-0.17 0.986-0.083 0.256-0.203 0.442-0.358 0.56-0.156 0.115-0.365 0.173-0.621 0.173-0.257 0-0.463-0.058-0.618-0.173-0.158-0.118-0.278-0.304-0.361-0.56-0.085-0.257-0.14-0.585-0.169-0.986-0.028-0.401-0.042-0.89-0.042-1.467s0.014-1.069 0.042-1.473zm-1.683 3.27c0.059 0.549 0.192 1.02 0.397 1.412 0.203 0.394 0.498 0.701 0.884 0.921 0.384 0.22 0.901 0.331 1.55 0.331 0.65 0 1.166-0.111 1.552-0.331 0.385-0.22 0.677-0.527 0.884-0.921 0.203-0.392 0.336-0.863 0.398-1.412 0.056-0.548 0.089-1.148 0.089-1.797 0-0.658-0.033-1.259-0.089-1.804-0.062-0.546-0.195-1.015-0.398-1.407-0.207-0.393-0.499-0.692-0.884-0.903-0.386-0.207-0.902-0.311-1.552-0.311-0.649 0-1.166 0.104-1.55 0.311-0.386 0.211-0.681 0.51-0.884 0.903-0.205 0.392-0.338 0.861-0.397 1.407-0.061 0.545-0.091 1.146-0.091 1.804 0 0.649 0.03 1.249 0.091 1.797" fill="#231f20"/>
</g>
<g transform="matrix(1.25 0 0 -1.25 422.18 -384.51)">
<path d="m0 0v-1.418h-3.066v-2.02h2.885v-1.419h-2.885v-3.726h-1.732v8.583h4.798" fill="#231f20"/>
</g>
<g transform="matrix(1.25 0 0 -1.25 349.36 -369.85)">
<path d="m0 0h-1.875v-7.166h-1.733v7.166h-1.875v1.419h5.483v-1.419" fill="#231f20"/>
</g>
<g transform="matrix(1.25 0 0 -1.25 356.28 -369.85)">
<path d="m0 0h-3.066v-2.021h2.884v-1.418h-2.884v-2.308h3.186v-1.419h-4.919v8.585h4.799v-1.419" fill="#231f20"/>
</g>
<g transform="matrix(1.25 0 0 -1.25 361.82 -369.71)">
<path d="m0 0c-0.149 0.284-0.419 0.427-0.813 0.427-0.216 0-0.395-0.058-0.534-0.175-0.141-0.115-0.252-0.304-0.332-0.564-0.081-0.26-0.136-0.601-0.168-1.022-0.031-0.42-0.047-0.937-0.047-1.546 0-0.647 0.023-1.173 0.066-1.575 0.043-0.4 0.112-0.71 0.204-0.931 0.092-0.22 0.209-0.369 0.347-0.444 0.142-0.077 0.304-0.115 0.489-0.115 0.153 0 0.294 0.027 0.427 0.076 0.13 0.053 0.244 0.157 0.341 0.315 0.098 0.157 0.171 0.378 0.229 0.661 0.055 0.284 0.085 0.66 0.085 1.124h1.731c0-0.464-0.036-0.907-0.108-1.324-0.074-0.415-0.207-0.78-0.404-1.093-0.197-0.312-0.472-0.555-0.831-0.733-0.354-0.176-0.817-0.265-1.387-0.265-0.649 0-1.165 0.104-1.55 0.313-0.386 0.207-0.68 0.508-0.884 0.901-0.204 0.394-0.338 0.862-0.398 1.407-0.059 0.547-0.088 1.146-0.088 1.804 0 0.65 0.029 1.248 0.088 1.798 0.06 0.548 0.194 1.019 0.398 1.412s0.498 0.699 0.884 0.92c0.385 0.22 0.901 0.331 1.55 0.331 0.617 0 1.105-0.101 1.461-0.299 0.357-0.202 0.624-0.456 0.799-0.765 0.178-0.309 0.287-0.642 0.331-0.997 0.045-0.358 0.067-0.693 0.067-1.006h-1.731c0 0.626-0.075 1.081-0.222 1.365" fill="#231f20"/>
</g>
<g transform="matrix(1.25 0 0 -1.25 367.75 -371.63)">
<path d="m0 0v-3.283h2.018v3.283h1.733v-8.585h-1.733v3.812h-2.018v-3.812h-1.733v8.585h1.733" fill="#231f20"/>
</g>
<g transform="matrix(1.25 0 0 -1.25 379.39 -364.28)">
<path d="m0 0h0.025v5.879h1.587v-8.585h-1.971l-2.117 6.012h-0.024v-6.012h-1.586v8.585h1.995l2.091-5.879" fill="#231f20"/>
</g>
<g transform="matrix(1.25 0 0 -1.25 384.81 -364.42)">
<path d="m0 0c0.029-0.404 0.084-0.733 0.167-0.986 0.085-0.253 0.206-0.436 0.363-0.552 0.154-0.118 0.362-0.175 0.619-0.175 0.256 0 0.463 0.057 0.618 0.175 0.157 0.116 0.276 0.299 0.36 0.552 0.085 0.253 0.142 0.582 0.17 0.986 0.027 0.406 0.041 0.896 0.041 1.473s-0.014 1.065-0.041 1.468c-0.028 0.4-0.085 0.728-0.17 0.985-0.084 0.257-0.203 0.443-0.36 0.558-0.155 0.117-0.362 0.175-0.618 0.175-0.257 0-0.465-0.058-0.619-0.175-0.157-0.115-0.278-0.301-0.363-0.558-0.083-0.257-0.138-0.585-0.167-0.985-0.028-0.403-0.042-0.891-0.042-1.468s0.014-1.067 0.042-1.473zm-1.683 3.271c0.059 0.548 0.192 1.02 0.395 1.412 0.205 0.393 0.5 0.699 0.884 0.921 0.386 0.219 0.903 0.33 1.553 0.33 0.648 0 1.166-0.111 1.551-0.33 0.384-0.222 0.679-0.528 0.884-0.921 0.203-0.392 0.336-0.864 0.396-1.412 0.06-0.55 0.091-1.148 0.091-1.798 0-0.658-0.031-1.257-0.091-1.804-0.06-0.544-0.193-1.013-0.396-1.407-0.205-0.393-0.5-0.694-0.884-0.901-0.385-0.209-0.903-0.313-1.551-0.313-0.65 0-1.167 0.104-1.553 0.313-0.384 0.207-0.679 0.508-0.884 0.901-0.203 0.394-0.336 0.863-0.395 1.407-0.061 0.547-0.089 1.146-0.089 1.804 0 0.65 0.028 1.248 0.089 1.798" fill="#231f20"/>
</g>
<g transform="matrix(1.25 0 0 -1.25 391.35 -371.63)">
<path d="m0 0h1.732v-7.167h3.066v-1.418h-4.798v8.585" fill="#231f20"/>
</g>
<g transform="matrix(1.25 0 0 -1.25 400.21 -364.42)">
<path d="m0 0c0.028-0.404 0.086-0.733 0.17-0.986 0.082-0.253 0.205-0.436 0.361-0.552 0.154-0.118 0.361-0.175 0.617-0.175 0.257 0 0.463 0.057 0.62 0.175 0.156 0.116 0.277 0.299 0.361 0.552 0.083 0.253 0.139 0.582 0.167 0.986 0.028 0.406 0.041 0.896 0.041 1.473s-0.013 1.065-0.041 1.468c-0.028 0.4-0.084 0.728-0.167 0.985-0.084 0.257-0.205 0.443-0.361 0.558-0.157 0.117-0.363 0.175-0.62 0.175-0.256 0-0.463-0.058-0.617-0.175-0.156-0.115-0.279-0.301-0.361-0.558-0.084-0.257-0.142-0.585-0.17-0.985-0.028-0.403-0.041-0.891-0.041-1.468s0.013-1.067 0.041-1.473zm-1.684 3.271c0.061 0.548 0.193 1.02 0.397 1.412 0.206 0.393 0.499 0.699 0.884 0.921 0.386 0.219 0.903 0.33 1.551 0.33 0.65 0 1.167-0.111 1.552-0.33 0.385-0.222 0.678-0.528 0.884-0.921 0.203-0.392 0.336-0.864 0.397-1.412 0.059-0.55 0.089-1.148 0.089-1.798 0-0.658-0.03-1.257-0.089-1.804-0.061-0.544-0.194-1.013-0.397-1.407-0.206-0.393-0.499-0.694-0.884-0.901-0.385-0.209-0.902-0.313-1.552-0.313-0.648 0-1.165 0.104-1.551 0.313-0.385 0.207-0.678 0.508-0.884 0.901-0.204 0.394-0.336 0.863-0.397 1.407-0.06 0.547-0.09 1.146-0.09 1.804 0 0.65 0.03 1.248 0.09 1.798" fill="#231f20"/>
</g>
<g transform="matrix(1.25 0 0 -1.25 411.28 -369.06)">
<path d="m0 0c-0.037 0.167-0.096 0.322-0.175 0.463-0.081 0.14-0.184 0.256-0.307 0.349-0.124 0.091-0.275 0.137-0.452 0.137-0.417 0-0.716-0.233-0.902-0.696-0.184-0.467-0.276-1.235-0.276-2.31 0-0.512 0.016-0.977 0.048-1.394 0.033-0.418 0.092-0.771 0.176-1.065 0.083-0.292 0.203-0.516 0.36-0.673 0.156-0.158 0.358-0.234 0.607-0.234 0.104 0 0.217 0.028 0.343 0.083 0.123 0.056 0.24 0.141 0.349 0.255 0.109 0.111 0.198 0.252 0.27 0.424 0.072 0.174 0.108 0.377 0.108 0.609v0.877h-1.142v1.275h2.801v-4.629h-1.276v0.793h-0.022c-0.209-0.336-0.459-0.575-0.752-0.716-0.293-0.14-0.642-0.21-1.053-0.21-0.529 0-0.958 0.093-1.292 0.277-0.334 0.185-0.594 0.469-0.78 0.853-0.189 0.385-0.315 0.86-0.38 1.426-0.062 0.564-0.096 1.22-0.096 1.965 0 0.721 0.047 1.356 0.14 1.901 0.09 0.545 0.25 1 0.474 1.363 0.224 0.365 0.521 0.639 0.889 0.825 0.368 0.183 0.829 0.276 1.382 0.276 0.947 0 1.629-0.235 2.045-0.703 0.417-0.471 0.626-1.14 0.626-2.014h-1.66c0 0.161-0.018 0.324-0.053 0.493" fill="#231f20"/>
</g>
<g transform="matrix(1.25 0 0 -1.25 418.08 -367.48)">
<path d="m0 0h0.023l1.203 3.32h1.876l-2.224-5.208v-3.378h-1.732v3.378l-2.225 5.208h1.948l1.131-3.32" fill="#231f20"/>
</g>
<g transform="matrix(1.25 0 0 -1.25 329.69 -343.69)">
<path d="M 0,0 -53.488,9.354 -45.071,57.629 8.415,48.277 0,0" fill="#ed1c24"/>
</g>
<path d="m268.42-349.2h65.931v-59.985h-65.931v59.985z" fill="#fff"/>
<g transform="matrix(1.25 0 0 -1.25 306.12 -389.54)">
<path d="m0 0v-22.737h-6.139v21.673l6.139 1.064zm22.643 6.063v9.78h-52.929v-34.145h0.157v-5e-3h11.465c0.467 0.012 0.955 0.049 1.477 0.124 0.626 0.092 1.212 0.268 1.76 0.529 0.547 0.261 1.004 0.617 1.369 1.076 0.365 0.455 0.546 1.035 0.546 1.739 0 0.757-0.24 1.369-0.722 1.839-0.484 0.47-1.115 0.86-1.898 1.173-0.781 0.313-1.669 0.585-2.659 0.821-0.989 0.234-1.993 0.495-3.01 0.782-1.042 0.259-2.059 0.579-3.05 0.959-0.99 0.375-1.876 0.864-2.658 1.465-0.781 0.6-1.416 1.35-1.897 2.249-0.483 0.898-0.723 1.987-0.723 3.264 0 1.434 0.306 2.679 0.918 3.735 0.611 1.056 1.415 1.936 2.405 2.639 0.991 0.705 2.113 1.226 3.363 1.564 1.035 0.28 2.067 0.437 3.1 0.487v-9e-3h12.397l-0.74-4.744h-11.657v-7e-3c-0.369-0.019-0.737-0.068-1.105-0.146-0.496-0.104-0.946-0.287-1.35-0.547s-0.736-0.586-0.997-0.978c-0.261-0.39-0.391-0.886-0.391-1.485 0-0.549 0.104-0.991 0.313-1.329 0.208-0.339 0.619-0.653 1.231-0.939 0.614-0.289 1.46-0.574 2.542-0.861 1.082-0.286 2.496-0.651 4.243-1.094 0.52-0.105 1.245-0.293 2.171-0.568 0.924-0.273 1.842-0.71 2.755-1.309 0.912-0.6 1.703-1.401 2.366-2.405 0.666-1.004 0.998-2.288 0.998-3.852 0-1.276-0.248-2.462-0.743-3.559-0.497-1.094-1.232-2.04-2.209-2.834-0.977-0.795-2.191-1.415-3.638-1.858-1.315-0.402-2.821-0.62-4.514-0.656h-11.458v-6e-3h-0.157v-9.466h52.929v33.415h-7.838v-23.855h-6.139v23.855h-6.378l1.045 5.162h19.31" fill="#231f20"/>
</g>
<g transform="matrix(1.25 0 0 -1.25 306.49 -394.46)">
<path d="m0 0c0-1.702-1.381-3.082-3.083-3.082s-3.083 1.38-3.083 3.082 1.381 3.083 3.083 3.083 3.083-1.381 3.083-3.083" fill="#ed1c24"/>
</g>
</g>
</svg>
